<svg xmlns="http://www.w3.org/2000/svg" xmlns:xlink="http://www.w3.org/1999/xlink" width="2500" height="1875" viewBox="0 0 1015.7 761.8" id="bbc"><g><g transform="matrix(6.04592 0 0 -6.04592 -728.705 2926.31)"><defs><path id="a" d="M-303.3 40.1H712.4v761.8H-303.3z"></path></defs><clipPath id="b"><use overflow="visible" xlink:href="#a"></use></clipPath><g clip-path="url(#b)"><path fill="#c02519" d="M120.5 484h168V358h-168v126z"></path><path fill="#fff" d="M173.7 400.6h3.4V376h-3l-16.5 19v-19h-3.3v24.7h2.9l16.6-19.2v19.1zM183.5 400.6h14v-3.1H187V390h10.1v-3.2H187v-7.7h10.8V376h-14.3v24.6zM235.1 400.6h3.5l-10-24.8h-.8l-8.1 20.1-8.2-20.1h-.8l-9.9 24.8h3.6l6.8-17 6.8 17h3.3l6.9-17 6.9 17zM248.2 386.3l-2.7 1.6c-1.7 1-2.9 2-3.6 3-.7 1-1.1 2.1-1.1 3.4 0 1.9.7 3.5 2 4.7 1.3 1.2 3.1 1.8 5.3 1.8 2.1 0 3.9-.6 5.7-1.7v-4c-1.8 1.7-3.7 2.6-5.7 2.6-1.2 0-2.1-.3-2.8-.8-.7-.5-1.1-1.2-1.1-2 0-.7.3-1.4.8-2.1.5-.6 1.4-1.3 2.6-2l2.7-1.6c3-1.8 4.5-4.1 4.5-6.9 0-2-.7-3.6-2-4.8-1.3-1.2-3-1.9-5.2-1.9-2.4 0-4.7.7-6.7 2.2v4.5c1.9-2.4 4.1-3.6 6.6-3.6 1.1 0 2 .3 2.8.9.7.6 1.1 1.4 1.1 2.3.1 1.6-1 3.1-3.2 4.4M172.3 434.2h3.5l-10-24.8h-.8l-8.1 20.1-8.1-20.1h-.8l-9.9 24.8h3.6l6.8-17 6.8 17h3.3l6.9-17 6.8 17zM189.7 431.2c-2.8 0-5.1-.9-7-2.6-1.8-1.8-2.7-4-2.7-6.8 0-2.7.9-4.9 2.7-6.6 1.8-1.8 4.1-2.6 6.8-2.6 2.8 0 5 .9 6.9 2.7 1.8 1.8 2.8 4 2.8 6.7 0 2.6-.9 4.8-2.8 6.6-1.8 1.8-4 2.6-6.7 2.6m-.2 3.4c3.8 0 7-1.2 9.5-3.6 2.5-2.4 3.8-5.4 3.8-9.1 0-3.6-1.3-6.6-3.8-9-2.6-2.4-5.8-3.6-9.7-3.6-3.7 0-6.8 1.2-9.3 3.6-2.5 2.4-3.7 5.4-3.7 9 0 3.7 1.2 6.7 3.7 9.1 2.6 2.4 5.7 3.6 9.5 3.6M211.5 431.2h-1.1v-7.8h1.3c1.8 0 3 .2 3.7.5.7.3 1.2.8 1.6 1.4.4.6.6 1.3.6 2.1s-.2 1.5-.6 2.1c-.4.6-1 1.1-1.7 1.3-.8.3-2 .4-3.8.4m-4.5-21.6v24.7h6.2c2.5 0 4.5-.6 5.9-1.9 1.5-1.2 2.2-2.9 2.2-5 0-1.4-.4-2.7-1.1-3.7-.7-1-1.7-1.8-3.1-2.3.8-.5 1.6-1.2 2.3-2.1.8-.9 1.8-2.5 3.2-4.7.9-1.4 1.5-2.5 2.1-3.2l1.3-1.8h-4.2l-1.1 1.6c0 .1-.1.2-.2.3l-.7 1-1.1 1.8-1.2 1.9c-.7 1-1.4 1.8-2 2.4-.6.6-1.2 1-1.6 1.3-.5.3-1.3.4-2.5.4h-.9v-10.7H207zM229.4 434.2h3.5v-21.5H244v-3.2h-14.6v24.7zM256.2 431.1h-4.4v-18.3h4.5c1.8 0 3.1.1 4.1.4 1 .2 1.8.5 2.4.9.7.4 1.2.8 1.8 1.4 1.7 1.8 2.6 4 2.6 6.7 0 2.6-.9 4.8-2.7 6.5-.7.6-1.4 1.1-2.3 1.5-.9.4-1.7.7-2.4.8-.7 0-1.9.1-3.6.1m-7.9-21.5v24.6h8.3c3.4 0 6-.5 8-1.5s3.5-2.5 4.7-4.4c1.2-2 1.7-4.1 1.7-6.4 0-1.6-.3-3.2-1-4.7-.6-1.5-1.5-2.8-2.7-4-1.2-1.2-2.6-2.1-4.2-2.7-.9-.4-1.8-.6-2.6-.7-.8-.1-2.3-.2-4.4-.2h-7.8zM207.8 453.2c0-.5-.2-1.1-.6-1.5-.5-.4-1.3-.7-2.6-.7h-2.7v4.4h2.6c1.2 0 2.1-.2 2.6-.6.4-.5.7-1 .7-1.6M205.6 458.4c.5.4.8.9.8 1.7 0 .5-.2 1-.5 1.3-.4.3-1 .6-2.1.6h-1.9v-4.1h1.3c1-.1 1.9.1 2.4.5"></path><path fill="#fff" d="M210.7 452.8c0 2-1.3 3.5-3.5 4.1.6.3 1 .7 1.4 1.1.4.6.7 1.3.7 2.2 0 1-.4 2.1-1.3 2.9-.9.8-2.2 1.3-4 1.3h-5v-16h5.9c2.1 0 3.6.6 4.5 1.4.9.9 1.3 2 1.3 3m5.6-7.4h-23.6v22.2h23.6v-22.2zM178.4 458.4c.5.4.8.9.8 1.7 0 .5-.2 1-.5 1.3-.4.3-1 .6-2.1.6h-1.9v-4.1h1.3c1.1-.1 1.9.1 2.4.5M179.9 454.7c-.5.4-1.4.6-2.6.6h-2.6V451h2.7c1.3 0 2.2.3 2.6.7.5.4.6.9.6 1.5s-.2 1.1-.7 1.5"></path><path fill="#fff" d="M183.6 452.8c0 2-1.3 3.5-3.5 4.1.6.3 1 .7 1.4 1.1.4.6.7 1.3.7 2.2 0 1-.4 2.1-1.3 2.9-.9.8-2.2 1.3-4 1.3h-5v-16h5.9c2.1 0 3.6.6 4.5 1.4.9.9 1.3 2 1.3 3m5.6-7.4h-23.6v22.2h23.6v-22.2zM238.8 452.7l-.4-.2c-1.8-1.1-3.8-1.7-5.6-1.7-3.9 0-6.4 2.3-6.4 5.6s2.7 5.7 6.3 5.7c1.9 0 3.5-.5 5.5-1.6l.4-.2v3l-.2.1c-2.3.9-4 1.3-5.7 1.3-2.7 0-5-.9-6.6-2.4-1.7-1.5-2.6-3.6-2.6-6 0-1.7.7-3.7 2.2-5.2 1.5-1.6 3.8-2.7 6.9-2.7 2.6 0 4.4.6 6.1 1.4l.1.1v2.8zm4.6-7.3h-23.6v22.2h23.6v-22.2z"></path></g></g></g></svg>