<svg xmlns="http://www.w3.org/2000/svg" width="72" height="72" viewBox="0 0 72 72" id="cnn"><g fill="none" fill-rule="evenodd"><g><rect width="72" height="72" fill="#ED1C2E" rx="4"></rect><path fill="#FFF" d="M31.408 48.49c-2.153-.155-3.98-1.985-3.98-4.569V31.632c.001-.444-.327-.827-.802-.827H22.83c-8.219-.01-7.49 10.608-.494 10.62h4.196v3.089h-4.35c-2.786 0-4.853-1.051-6.248-2.62-1.395-1.57-2.094-3.68-2.098-5.786-.004-2.106.686-4.205 2.113-5.77 1.428-1.566 3.584-2.62 6.542-2.62h7.158c.472 0 .864.411.864.889v14.987c-.003.772.426 1.368.987 1.544.56.174 1.218-.048 1.604-.609l.016-.016c2.036-3.367 10.121-16.477 10.135-16.5.222-.32.486-.377.679-.312.193.065.387.276.386.796v15.096c-.003.771.427 1.369.987 1.544.56.175 1.203-.047 1.589-.608v-.017h.03c2.037-3.367 10.123-16.477 10.136-16.5.22-.317.476-.378.68-.312.203.067.402.264.4.78v19.931h-3.07V36.777s-1.83 3.161-4.967 8.609c-3.072 5.335-8.87 3.126-8.87-1.466v-7.143s-1.8 3.161-4.937 8.609c-1.344 2.333-3.216 3.224-4.89 3.103v.002zm27.522-.077H62V28.044c.015-5.24-6.069-6.064-8.577-1.872-1.477 2.469-5.23 8.765-5.23 8.765v-6.893c.015-5.24-6.054-6.064-8.562-1.872l-5.245 8.765V28.7c.004-3.186-1.837-4.912-4.721-4.912h-6.71c-17.152.012-17.316 24.624-.232 24.624h3.81v-3.119H22.18c-2.98-.005-5.283-1.138-6.82-2.866-1.535-1.728-2.309-4.032-2.313-6.317-.003-1.664.408-3.33 1.24-4.78l.025-.045a8.614 8.614 0 0 1 1.081-1.475 8.47 8.47 0 0 1 3.23-2.194c1.123-.435 2.413-.68 3.866-.68h7.161c.897 0 1.638.763 1.638 1.672v15.005c-.002.508.216.702.448.774a.567.567 0 0 0 .49-.075.874.874 0 0 0 .231-.235c2.057-3.4 10.151-16.5 10.151-16.5h.012v-.015c.38-.549 1.006-.793 1.548-.61.177.06.337.165.472.306.28.288.454.727.452 1.239v15.096c-.001.428.154.638.341.736a.66.66 0 0 0 .104.042c.223.07.496.006.708-.28.002 0-.002-.017 0-.017.003-.002.005-.002.007 0l.006.002c.001 0 .003 0 .004-.002 2.061-3.409 10.15-16.48 10.15-16.48v-.032h.017c.303-.436.76-.667 1.21-.654.118.003.236.023.35.06.534.177.925.723.94 1.46l.001.056v19.929z" transform="matrix(1 0 0 -1 0 72)"></path></g></g></svg>